<svg xmlns="http://www.w3.org/2000/svg" viewBox="0 0 504 504" width="512" height="512"><path d="M350.28 364.128H153.64c-4.352 0-7.868 3.524-7.868 7.868s3.516 7.868 7.868 7.868h196.64c4.344 0 7.872-3.52 7.872-7.868 0-4.344-3.528-7.868-7.872-7.868zm0 39.344h-19.72a7.868 7.868 0 00-7.868 7.872 7.867 7.867 0 007.868 7.868h19.72c4.344 0 7.872-3.524 7.872-7.868a7.874 7.874 0 00-7.872-7.872zm-55.32-.004H153.64a7.865 7.865 0 00-7.868 7.872 7.865 7.865 0 007.868 7.868h141.32a7.867 7.867 0 007.868-7.868 7.868 7.868 0 00-7.868-7.872zm-62.736-78.684H153.64a7.867 7.867 0 00-7.868 7.868 7.862 7.862 0 007.868 7.868h78.584a7.867 7.867 0 100-15.736zm118.056 0h-78.488a7.868 7.868 0 100 15.736h78.488c4.344 0 7.872-3.52 7.872-7.868 0-4.34-3.528-7.868-7.872-7.868z" data-original="#000000" class="active-path" data-old_color="#000000" fill="#9E9FA0"/><path d="M468.22 151.676h-62.78V51.236c0-4.344-3.672-5.788-8.016-5.788H106.472c-4.348 0-7.908 1.444-7.908 5.788v100.44H36.04c-19.732 0-35.784 15.06-35.784 34.784L0 339.596c0 19.732 16.052 36.332 35.788 36.332h62.776v72.788c0 4.344 3.46 9.836 7.812 9.836h290.996c4.352 0 8.072-5.492 8.072-9.836v-72.788h62.524c19.732 0 35.78-17.104 35.78-36.828L504 186.992c0-19.736-16.052-35.316-35.78-35.316zM55.172 263.804c-8.7 0-15.74-7.044-15.74-15.74 0-8.692 7.036-15.736 15.74-15.736 8.688 0 15.736 7.044 15.736 15.736.004 8.692-7.044 15.74-15.736 15.74zm35.464-7.872c-4.352 0-7.868-3.524-7.868-7.868s3.516-7.868 7.868-7.868a7.872 7.872 0 017.868 7.868 7.87 7.87 0 01-7.868 7.868zM389.7 61.184v133.768H114.3V61.184h275.4zm0 381.632H114.3v-141.64h275.4v141.64zm7.668-184.916h-39.252c-4.348 0-7.872-3.524-7.872-7.868s3.524-7.868 7.872-7.868h39.252a7.868 7.868 0 110 15.736zm34.26-1.968c-4.348 0-7.868-3.524-7.868-7.868s3.52-7.868 7.868-7.868c4.34 0 7.872 3.524 7.872 7.868 0 4.348-3.532 7.868-7.872 7.868z" data-original="#000000" class="active-path" data-old_color="#000000" fill="#9E9FA0"/></svg>